<?xml version="1.0" standalone="no"?>
<!DOCTYPE svg PUBLIC "-//W3C//DTD SVG 20010904//EN"
 "http://www.w3.org/TR/2001/REC-SVG-20010904/DTD/svg10.dtd">
<svg version="1.0" xmlns="http://www.w3.org/2000/svg"
 width="500.000000pt" height="500.000000pt" viewBox="0 0 500.000000 500.000000"
 preserveAspectRatio="xMidYMid meet">
<metadata>
Created by potrace 1.11, written by Peter Selinger 2001-2013
</metadata>
<g transform="translate(0.000000,500.000000) scale(0.100000,-0.100000)"
fill="#000000" stroke="none">
<path d="M675 4970 c-94 -21 -139 -37 -221 -78 -217 -110 -382 -328 -435 -576
-18 -88 -19 -145 -16 -1846 1 -965 6 -1768 10 -1785 25 -91 65 -193 101 -255
138 -234 380 -392 641 -417 39 -4 837 -7 1775 -7 1801 0 1769 -1 1904 46 286
98 506 356 556 649 7 45 10 596 8 1839 l-3 1775 -26 77 c-25 73 -95 213 -121
244 -7 8 -31 36 -53 62 -79 94 -213 190 -325 233 -30 12 -95 30 -145 40 -86
18 -165 19 -1830 18 -1636 -1 -1745 -2 -1820 -19z"/>
</g>
</svg>
